<svg xmlns="http://www.w3.org/2000/svg" width="39.491" height="49.038" viewBox="0 0 39.491 49.038">
  <g id="그룹_15" data-name="그룹 15" transform="translate(-1925.265 -4561.471)">
    <path id="패스_214" data-name="패스 214" d="M1963.244,4572.438v34.636a1.952,1.952,0,0,1-1.946,1.946h-32.6a1.952,1.952,0,0,1-1.944-1.946v-42.146a1.95,1.95,0,0,1,1.944-1.946h24.2" fill="#fff"/>
    <path id="패스_215" data-name="패스 215" d="M1961.3,4610.009h-32.6a2.938,2.938,0,0,1-2.935-2.935v-42.146a2.939,2.939,0,0,1,2.935-2.937h24.2a.99.99,0,1,1,0,1.981h-24.2a.955.955,0,0,0-.954.956v42.146a.955.955,0,0,0,.954.955h32.6a.957.957,0,0,0,.958-.955v-34.636a.99.99,0,1,1,1.979,0v34.636A2.939,2.939,0,0,1,1961.3,4610.009Z" fill="#4d4d4d" stroke="#4d4d4d" stroke-width="1"/>
    <path id="패스_216" data-name="패스 216" d="M1953.151,4562.982v9.078h10.093Z" fill="#fcce0d"/>
    <path id="패스_217" data-name="패스 217" d="M1963.244,4573.052h-10.093a.992.992,0,0,1-.991-.991v-9.079a.991.991,0,0,1,1.653-.737l10.094,9.08a.99.99,0,0,1-.663,1.727Zm-9.1-1.981h6.523l-6.523-5.867Z" fill="#4d4d4d" stroke="#4d4d4d" stroke-width="1"/>
    <rect id="사각형_23" data-name="사각형 23" width="11.869" height="1.98" transform="translate(1933.322 4579.982)" fill="#4d4d4d"/>
    <rect id="사각형_24" data-name="사각형 24" width="11.869" height="1.982" transform="translate(1933.322 4599.42)" fill="#4d4d4d"/>
    <rect id="사각형_25" data-name="사각형 25" width="21.74" height="1.98" transform="translate(1933.322 4586.462)" fill="#4d4d4d"/>
    <rect id="사각형_26" data-name="사각형 26" width="21.74" height="1.98" transform="translate(1933.322 4592.941)" fill="#4d4d4d"/>
    <rect id="사각형_27" data-name="사각형 27" width="15.139" height="4.585" transform="translate(1933.322 4571.181)" fill="#fcce0d"/>
  </g>
</svg>
