<?xml version="1.0" encoding="utf-8"?>
<svg preserveAspectRatio="none slice" width="120" height="21" viewBox="0 0 120 21" xmlns="http://www.w3.org/2000/svg"
     xmlns:xlink="http://www.w3.org/1999/xlink">
    <svg id="tel" width="19" height="19.001" viewBox="0 0 19 19.001" x="0" y="0" xmlns="http://www.w3.org/2000/svg">
        <path id="패스_62" data-name="패스 62" d="M1896.519,1763.754a17,17,0,0,1-15.936-15.939h0l0-.059a3,3,0,0,1,2.922-3h0c.025,0,.052,0,.078,0h4a1.006,1.006,0,0,1,.929.629h0l2,5a1,1,0,0,1-.414,1.229h0l-1.674,1a9.985,9.985,0,0,0,3.3,3.3h0l1-1.674a1,1,0,0,1,1.228-.414h0l5,2a1,1,0,0,1,.629.929h0v4a3,3,0,0,1-3,3h0l-.061,0Zm.061-2a1,1,0,0,0,1-1h0v-3.323L1894,1756l-1.062,1.771a1,1,0,0,1-1.3.381h0a12.011,12.011,0,0,1-5.456-5.453h0a1,1,0,0,1,.384-1.3h0l1.768-1.061-1.432-3.579h-3.364a1,1,0,0,0-.957.976h0a14.986,14.986,0,0,0,14,14.024Z" transform="translate(-1880.58 -1744.755)" fill="#4d4d4d"/>
    </svg>
    <svg id="fax" width="20" height="20" viewBox="0 0 20 20" x="20" y="0" xmlns="http://www.w3.org/2000/svg">
        <path id="패스_63" data-name="패스 63" d="M1901.75,1834.722v-1.186a2.5,2.5,0,0,0-.732-1.768l-1.661-1.661a2.871,2.871,0,0,0-1.767-.732h-7.775a1.221,1.221,0,0,0-1.19,1.25v4.1a2.471,2.471,0,0,0-1.25-.347H1885.5a2.5,2.5,0,0,0-2.5,2.5v10a2.5,2.5,0,0,0,2.5,2.5h1.875a2.453,2.453,0,0,1,3.125,0h10a2.5,2.5,0,0,0,2.5-2.5v-10A2.489,2.489,0,0,0,1901.75,1834.722ZM1888,1846.875a.625.625,0,0,1-.625.625H1885.5a.625.625,0,0,1-.625-.625v-10a.625.625,0,0,1,.625-.625h1.875a.625.625,0,0,1,.625.625Zm2.5-15.625h6.875v1.875a.624.624,0,0,0,.625.625h1.875v3.125H1890.5Zm10.625,15.625a.625.625,0,0,1-.625.625h-10a.625.625,0,0,1-.625-.625v-8.125h11.25Zm-4.375-4.375H1898a.624.624,0,0,0,.625-.625v-1.25A.625.625,0,0,0,1898,1840h-1.25a.625.625,0,0,0-.625.625v1.25A.624.624,0,0,0,1896.75,1842.5Zm-3.75,3.75h1.25a.624.624,0,0,0,.625-.625v-1.25a.625.625,0,0,0-.625-.625H1893a.625.625,0,0,0-.625.625v1.25A.624.624,0,0,0,1893,1846.25Zm0-3.75h1.25a.624.624,0,0,0,.625-.625v-1.25a.625.625,0,0,0-.625-.625H1893a.625.625,0,0,0-.625.625v1.25A.624.624,0,0,0,1893,1842.5Zm3.75,3.75H1898a.624.624,0,0,0,.625-.625v-1.25a.625.625,0,0,0-.625-.625h-1.25a.625.625,0,0,0-.625.625v1.25A.624.624,0,0,0,1896.75,1846.25Z" transform="translate(-1883 -1829.375)" fill="#4d4d4d"/>
    </svg>
    <svg id="email" width="20.001" height="15.998" viewBox="0 0 20.001 15.998" x="40" y="3" xmlns="http://www.w3.org/2000/svg">
        <path id="합치기_10" data-name="합치기 10" d="M1887,1933.2a3,3,0,0,1-3-3v-9.951a.961.961,0,0,1,0-.112,3,3,0,0,1,3-2.935v2a1,1,0,0,0-.889.539L1894,1925l7.888-5.257a1,1,0,0,0-.886-.54h-14v-2h14a3,3,0,0,1,3,2.965c0,.019,0,.039,0,.058v9.976a3,3,0,0,1-3,3Zm-1-3a1,1,0,0,0,1,1h14a1,1,0,0,0,1-1v-8.131l-7.445,4.964a1,1,0,0,1-1.111,0l-7.444-4.964Z" transform="translate(-1883.999 -1917.204)" fill="#4d4d4d"/>
    </svg>
    <svg id="location" width="18.002" height="20.485" viewBox="0 0 18.002 20.485" x="61" y="0" xmlns="http://www.w3.org/2000/svg">
        <path id="합치기_11" data-name="합치기 11" d="M1895,2020.484h-.007a3,3,0,0,1-2.112-.877l-4.244-4.245a9,9,0,1,1,12.729,0l-4.246,4.245a2.988,2.988,0,0,1-2.111.877Zm-4.952-16.433a7,7,0,0,0,0,9.9l4.245,4.244a1,1,0,0,0,1.412,0l4.245-4.244a7,7,0,1,0-9.9-9.9ZM1891,2009a4,4,0,0,1,4-4v2a2,2,0,1,0,2,2,2,2,0,0,0-2-2v-2a4,4,0,1,1-4,4Z" transform="translate(-1885.999 -1999.999)" fill="#4d4d4d"/>
    </svg>
    <svg id="document" width="15.999" height="20" viewBox="0 0 15.999 20" x="82" y="0" xmlns="http://www.w3.org/2000/svg">
        <path id="합치기_12" data-name="합치기 12" d="M1890,2105a3,3,0,0,1-3-3v-14a3,3,0,0,1,3-3h7.026a1.009,1.009,0,0,1,.443.116l0,0,.011.006.014.007,0,0a.951.951,0,0,1,.156.111.961.961,0,0,1,.071.068l4.953,4.953a1.042,1.042,0,0,1,.11.12l0,0,.012.014a.878.878,0,0,1,.075.117l0,0a.1.1,0,0,0,.006.012l.007.014h0a1,1,0,0,1,.105.447c0,.02,0,.04,0,.059V2102a3,3,0,0,1-3,3Zm-1-17v14a1,1,0,0,0,1,1h10a1,1,0,0,0,1-1v-10l-3,0a2,2,0,0,1-2-2v-3h-6A1,1,0,0,0,1889,2088Zm9,2h1.586l-1.585-1.585Zm-6,11a1,1,0,0,1,0-2h6a1,1,0,0,1,0,2Zm0-4a1,1,0,0,1,0-2h6a1,1,0,0,1,0,2Zm0-4a1,1,0,1,1,0-2h1a1,1,0,1,1,0,2Z" transform="translate(-1887 -2085.002)" fill="#4d4d4d"/>
    </svg>
    <svg id="monitor" width="16.998" height="17.002" viewBox="0 0 16.998 17.002" x="102" y="2" xmlns="http://www.w3.org/2000/svg">
        <path id="합치기_13" data-name="합치기 13" d="M1894.941,2187.5H1890.5a1,1,0,1,1,0-2h3.5V2183h-6.5a1,1,0,0,1-1-1v-10.5a1,1,0,0,1,1-1h15a1,1,0,0,1,1,1V2182a1,1,0,0,1-1,1H1896v2.5h3.5a1,1,0,0,1,0,2h-4.442l-.059,0Zm.1-6.5h6.458v-8.5h-13v8.5h6.542Z" transform="translate(-1886.501 -2170.498)" fill="#4d4d4d"/>
    </svg>
</svg>