<svg xmlns="http://www.w3.org/2000/svg" width="38.489" height="34.241" viewBox="0 0 38.489 34.241">
  <g id="그룹_17" data-name="그룹 17" transform="translate(-1893.511 -2836)">
    <path id="패스_107" data-name="패스 107" d="M1923,2836h2a7,7,0,0,1,7,7v2a7,7,0,0,1-7,7h-2a7,7,0,0,1-7-7v-2A7,7,0,0,1,1923,2836Z" fill="#fcce0d" fill-rule="evenodd"/>
    <path id="패스_108" data-name="패스 108" d="M1927.144,2862.481h-2.555v-15.366h-25.272v15.366h-2.554v-17.922h30.381Z" fill="#4d4d4d"/>
    <path id="패스_109" data-name="패스 109" d="M1928.248,2870.241h-32.385a2.612,2.612,0,0,1-2.352-2.853v-3.732H1910V2865l4.115-.064v-1.28H1930.6v3.732A2.612,2.612,0,0,1,1928.248,2870.241Zm-32.135-2.555H1928a.928.928,0,0,0,.048-.3v-1.175l-11.378.064v1.279h-9.229v-1.343h-11.377v1.175A.933.933,0,0,0,1896.113,2867.686Z" fill="#4d4d4d"/>
  </g>
</svg>
