<svg xmlns="http://www.w3.org/2000/svg" width="40.805" height="40.799" viewBox="0 0 40.805 40.799">
  <path id="합치기_50" data-name="합치기 50" d="M2022.768,6225.208l-1.816-1.816a5.716,5.716,0,0,1-1.325.155h-29.4a5.7,5.7,0,0,1-5.7-5.7v-18.9a5.7,5.7,0,0,1,5.7-5.7h.583l-5.842-5.842a1.5,1.5,0,0,1,2.12-2.119l37.8,37.8a1.5,1.5,0,0,1-2.122,2.121Zm-35.239-26.262v18.9a2.7,2.7,0,0,0,2.7,2.7h27.879l-7.672-7.673a7.824,7.824,0,0,1-5.489,2.273h-.012a7.8,7.8,0,0,1-5.531-13.308l-5.75-5.748a5.646,5.646,0,0,1-1.325.155h-2.1A2.7,2.7,0,0,0,1987.529,6198.946Zm12.6,8.4a4.8,4.8,0,0,0,7.309,4.089,4.847,4.847,0,0,0,.876-.687l-6.792-6.792A4.819,4.819,0,0,0,2000.128,6207.351Zm22.2,8.4v-16.8a2.7,2.7,0,0,0-2.7-2.7h-2.1a5.706,5.706,0,0,1-5.7-5.7.6.6,0,0,0-.6-.6h-12.6a.6.6,0,0,0-.423.178,1.5,1.5,0,0,1-2.134-2.109,3.617,3.617,0,0,1,2.558-1.069l12.6,0a3.6,3.6,0,0,1,3.6,3.6,2.706,2.706,0,0,0,2.7,2.7h2.1a5.7,5.7,0,0,1,5.7,5.7l0,16.8a1.5,1.5,0,0,1-3,0Z" transform="translate(-1984.527 -6184.848)" fill="#fff"/>
</svg>
