<?xml version="1.0" encoding="utf-8"?>
<svg preserveAspectRatio="none slice" width="270" height="90" viewBox="0 0 270 90" xmlns="http://www.w3.org/2000/svg"
     xmlns:xlink="http://www.w3.org/1999/xlink">
    <svg id="temp_warning" width="18" height="18" viewBox="0 0 18 18" x="0" y="0" xmlns="http://www.w3.org/2000/svg">
        <path id="합치기_19" data-name="합치기 19" d="M1848.5,3214.868l-.006,0-.012-.007-.014-.007,0,0a1,1,0,0,1-.318-.317l0,0-.007-.013-.008-.012,0-.006a1,1,0,0,1-.132-.525V3201a4.006,4.006,0,0,1,4-4h10a4,4,0,0,1,4,4v6a4,4,0,0,1-4,4h-8.586l-3.679,3.678a.983.983,0,0,1-.38.257l0,0-.017.006-.008,0-.014,0-.011,0-.009,0a.046.046,0,0,1-.019.005h0a.969.969,0,0,1-.274.038A1,1,0,0,1,1848.5,3214.868ZM1850,3201v10.585l2.291-2.294A1.01,1.01,0,0,1,1853,3209h9a2,2,0,0,0,2-2v-6a2,2,0,0,0-2-2h-10A2,2,0,0,0,1850,3201Zm6,6.008V3207a1,1,0,1,1,2,0v.008a1,1,0,1,1-2,0Zm0-3.009v-3a1,1,0,1,1,2,0v3a1,1,0,1,1-2,0Z" transform="translate(-1847.999 -3196.998)" fill="#4d4d4d"/>
    </svg>
    <svg id="temp_notice" width="18" height="18" viewBox="0 0 18 18" x="30" y="0" xmlns="http://www.w3.org/2000/svg">
        <path id="합치기_18" data-name="합치기 18" d="M1849.293,3260.708a1,1,0,0,1-.293-.772l0-12.936a4,4,0,0,1,4-4h10a4,4,0,0,1,4,4v6a4,4,0,0,1-4,4h-8.586l-3.708,3.71a1,1,0,0,1-1.413,0ZM1851,3247v10.586l2.295-2.294A1,1,0,0,1,1854,3255h9a2.005,2.005,0,0,0,2-2l0-6a2,2,0,0,0-2-2h-10A2.008,2.008,0,0,0,1851,3247Zm10,3.01V3250a1,1,0,1,1,2,0v.011a1,1,0,1,1-2,0Zm-4,0V3250a1,1,0,0,1,2,0v.011a1,1,0,0,1-2,0Zm-4,0V3250a1,1,0,1,1,2,0v.01a1,1,0,0,1-2,0Z" transform="translate(-1848.998 -3243.001)" fill="#4d4d4d"/>
    </svg>
    <svg id="temp_point" width="25" height="25.001" viewBox="0 0 25 25.001" x="60" y="0" xmlns="http://www.w3.org/2000/svg">
        <g id="그룹_16" data-name="그룹 16" transform="translate(-1846.015 -3288.985)">
            <path id="패스_117" data-name="패스 117" d="M1856.015,3288.985h5a10,10,0,0,1,10,10v5a10,10,0,0,1-10,10h-5a10,10,0,0,1-10-10v-5A10,10,0,0,1,1856.015,3288.985Z" fill="#fcce0d" fill-rule="evenodd"/>
            <path id="합치기_20" data-name="합치기 20" d="M1858,3305.638l-3.636-3.638v0a.728.728,0,1,1,1.03-1.029l3.121,3.119,6.757-6.756a.727.727,0,0,1,1.031,1.027l-7.274,7.275a.729.729,0,0,1-1.029,0Zm-3.636,0-3.636-3.637a.728.728,0,0,1,1.03-1.03l3.637,3.636a.729.729,0,0,1-1.031,1.03ZM1858,3302a.731.731,0,0,1,0-1.03l3.636-3.636a.728.728,0,0,1,1.03,1.029l-3.636,3.637a.73.73,0,0,1-1.03,0Z"/>
        </g>
    </svg>
    <svg id="step_arrow" width="16.001" height="10" viewBox="0 0 16.001 10" x="0" y="30" xmlns="http://www.w3.org/2000/svg">
        <path id="합치기_47" data-name="합치기 47" d="M2099,5663a1,1,0,0,1,0-1.414l2.294-2.294h-11.586a1,1,0,1,1,0-2h11.586L2099,5655a1,1,0,0,1,1.414-1.413l3.973,3.971a1,1,0,0,1,0,1.468l-3.974,3.975a1,1,0,0,1-1.414,0Z" transform="translate(-2088.708 -5653.292)" fill="#8c8c8c"/>
    </svg>
    <svg id="blanksmall_gray" width="13" height="13" viewBox="0 0 13 13" x="90" y="0" xmlns="http://www.w3.org/2000/svg">
        <path id="합치기_51" data-name="합치기 51" d="M2428.8,877.385a2.116,2.116,0,0,1-2.119-2.117v-6.156a2.119,2.119,0,0,1,2.119-2.12h3.421a.75.75,0,0,1,0,1.5H2428.8a.618.618,0,0,0-.618.62l0,6.156a.622.622,0,0,0,.62.619h6.158a.624.624,0,0,0,.618-.619v-3.421a.75.75,0,0,1,1.5,0v3.421a2.116,2.116,0,0,1-2.118,2.117Zm2.2-4.323a.756.756,0,0,1,0-1.062l5.562-5.561h-1.609a.75.75,0,0,1,0-1.5h3.421a.74.74,0,0,1,.118.01l.009,0h0a.752.752,0,0,1,.207.068l0,0,.009,0a.732.732,0,0,1,.18.132.753.753,0,0,1,.22.532l0,3.422a.751.751,0,0,1-1.5,0V867.5l-5.56,5.561a.755.755,0,0,1-1.063,0Z" transform="translate(-2426.677 -864.939)" fill="#4d4d4d"/>
    </svg>
    <svg id="blanksmall_white" width="13" height="13" viewBox="0 0 13 13" x="90" y="30" xmlns="http://www.w3.org/2000/svg">
        <path id="합치기_51" data-name="합치기 51" d="M2428.8,877.385a2.116,2.116,0,0,1-2.119-2.117v-6.156a2.119,2.119,0,0,1,2.119-2.12h3.421a.75.75,0,0,1,0,1.5H2428.8a.618.618,0,0,0-.618.62l0,6.156a.622.622,0,0,0,.62.619h6.158a.624.624,0,0,0,.618-.619v-3.421a.75.75,0,0,1,1.5,0v3.421a2.116,2.116,0,0,1-2.118,2.117Zm2.2-4.323a.756.756,0,0,1,0-1.062l5.562-5.561h-1.609a.75.75,0,0,1,0-1.5h3.421a.74.74,0,0,1,.118.01l.009,0h0a.752.752,0,0,1,.207.068l0,0,.009,0a.732.732,0,0,1,.18.132.753.753,0,0,1,.22.532l0,3.422a.751.751,0,0,1-1.5,0V867.5l-5.56,5.561a.755.755,0,0,1-1.063,0Z" transform="translate(-2426.677 -864.939)" fill="#FFF"/>
    </svg>
    <svg id="blanksmall_black" width="13" height="13" viewBox="0 0 13 13" x="90" y="60" xmlns="http://www.w3.org/2000/svg">
        <path id="합치기_51" data-name="합치기 51" d="M2428.8,877.385a2.116,2.116,0,0,1-2.119-2.117v-6.156a2.119,2.119,0,0,1,2.119-2.12h3.421a.75.75,0,0,1,0,1.5H2428.8a.618.618,0,0,0-.618.62l0,6.156a.622.622,0,0,0,.62.619h6.158a.624.624,0,0,0,.618-.619v-3.421a.75.75,0,0,1,1.5,0v3.421a2.116,2.116,0,0,1-2.118,2.117Zm2.2-4.323a.756.756,0,0,1,0-1.062l5.562-5.561h-1.609a.75.75,0,0,1,0-1.5h3.421a.74.74,0,0,1,.118.01l.009,0h0a.752.752,0,0,1,.207.068l0,0,.009,0a.732.732,0,0,1,.18.132.753.753,0,0,1,.22.532l0,3.422a.751.751,0,0,1-1.5,0V867.5l-5.56,5.561a.755.755,0,0,1-1.063,0Z" transform="translate(-2426.677 -864.939)" fill="#000"/>
    </svg>
    <svg id="downsmall_gray" width="13" height="13" viewBox="0 0 13 13" x="120" y="0" xmlns="http://www.w3.org/2000/svg">
        <path id="합치기_52" data-name="합치기 52" d="M2577.647,878.171a2.119,2.119,0,0,1-2.12-2.119v-1.368a.749.749,0,0,1,1.5,0v1.368a.62.62,0,0,0,.621.617h8.208a.619.619,0,0,0,.619-.617l0-1.368a.75.75,0,0,1,1.5,0v1.368a2.12,2.12,0,0,1-2.12,2.119Zm3.82-3.478h0l-.012-.005-.012,0h0a.728.728,0,0,1-.222-.154l-3.421-3.421v0a.751.751,0,0,1,1.061-1.063l2.141,2.141v-6.4a.749.749,0,1,1,1.5,0v6.4l2.143-2.142a.749.749,0,1,1,1.059,1.059l-3.407,3.407a.747.747,0,0,1-.826.178Z" transform="translate(-2575.527 -865.04)" fill="#4d4d4d"/>
    </svg>
    <svg id="downsmall_white" width="13" height="13" viewBox="0 0 13 13" x="120" y="30" xmlns="http://www.w3.org/2000/svg">
        <path id="합치기_52" data-name="합치기 52" d="M2577.647,878.171a2.119,2.119,0,0,1-2.12-2.119v-1.368a.749.749,0,0,1,1.5,0v1.368a.62.62,0,0,0,.621.617h8.208a.619.619,0,0,0,.619-.617l0-1.368a.75.75,0,0,1,1.5,0v1.368a2.12,2.12,0,0,1-2.12,2.119Zm3.82-3.478h0l-.012-.005-.012,0h0a.728.728,0,0,1-.222-.154l-3.421-3.421v0a.751.751,0,0,1,1.061-1.063l2.141,2.141v-6.4a.749.749,0,1,1,1.5,0v6.4l2.143-2.142a.749.749,0,1,1,1.059,1.059l-3.407,3.407a.747.747,0,0,1-.826.178Z" transform="translate(-2575.527 -865.04)" fill="#FFF"/>
    </svg>
    <svg id="downsmall_black" width="13" height="13" viewBox="0 0 13 13" x="120" y="60" xmlns="http://www.w3.org/2000/svg">
        <path id="합치기_52" data-name="합치기 52" d="M2577.647,878.171a2.119,2.119,0,0,1-2.12-2.119v-1.368a.749.749,0,0,1,1.5,0v1.368a.62.62,0,0,0,.621.617h8.208a.619.619,0,0,0,.619-.617l0-1.368a.75.75,0,0,1,1.5,0v1.368a2.12,2.12,0,0,1-2.12,2.119Zm3.82-3.478h0l-.012-.005-.012,0h0a.728.728,0,0,1-.222-.154l-3.421-3.421v0a.751.751,0,0,1,1.061-1.063l2.141,2.141v-6.4a.749.749,0,1,1,1.5,0v6.4l2.143-2.142a.749.749,0,1,1,1.059,1.059l-3.407,3.407a.747.747,0,0,1-.826.178Z" transform="translate(-2575.527 -865.04)" fill="#000"/>
    </svg>
    <svg id="btnnew_gray" width="16" height="16" viewBox="0 0 16 16" x="150" y="0" xmlns="http://www.w3.org/2000/svg">
        <path id="합치기_21" data-name="합치기 21" d="M1911.525,3607.633a2.683,2.683,0,0,1-2.684-2.684V3596.9a2.682,2.682,0,0,1,2.684-2.684H1916a.894.894,0,0,1,0,1.788h-4.475a.9.9,0,0,0-.895.9v8.053a.9.9,0,0,0,.895.895h8.053a.9.9,0,0,0,.9-.895v-4.473a.894.894,0,1,1,1.788,0v4.473a2.684,2.684,0,0,1-2.684,2.684Zm2.946-5.632a.9.9,0,0,1,0-1.266l7.419-7.418h-2.312a.9.9,0,1,1,0-1.79h4.475a.893.893,0,0,1,.486.143l.008.005,0,0a.906.906,0,0,1,.135.111.867.867,0,0,1,.134.173l0,0,0,.006a.9.9,0,0,1,.122.454v4.475a.9.9,0,0,1-1.79,0v-2.317l-7.421,7.42a.889.889,0,0,1-1.265,0Z" transform="translate(-1908.841 -3591.527)" fill="#4d4d4d"/>
    </svg>
    <svg id="btnnew_white" width="16" height="16" viewBox="0 0 16 16" x="150" y="30" xmlns="http://www.w3.org/2000/svg">
        <path id="합치기_21" data-name="합치기 21" d="M1911.525,3607.633a2.683,2.683,0,0,1-2.684-2.684V3596.9a2.682,2.682,0,0,1,2.684-2.684H1916a.894.894,0,0,1,0,1.788h-4.475a.9.9,0,0,0-.895.9v8.053a.9.9,0,0,0,.895.895h8.053a.9.9,0,0,0,.9-.895v-4.473a.894.894,0,1,1,1.788,0v4.473a2.684,2.684,0,0,1-2.684,2.684Zm2.946-5.632a.9.9,0,0,1,0-1.266l7.419-7.418h-2.312a.9.9,0,1,1,0-1.79h4.475a.893.893,0,0,1,.486.143l.008.005,0,0a.906.906,0,0,1,.135.111.867.867,0,0,1,.134.173l0,0,0,.006a.9.9,0,0,1,.122.454v4.475a.9.9,0,0,1-1.79,0v-2.317l-7.421,7.42a.889.889,0,0,1-1.265,0Z" transform="translate(-1908.841 -3591.527)" fill="#FFF"/>
    </svg>
    <svg id="btnnew_black" width="16" height="16" viewBox="0 0 16 16" x="150" y="60" xmlns="http://www.w3.org/2000/svg">
        <path id="합치기_21" data-name="합치기 21" d="M1911.525,3607.633a2.683,2.683,0,0,1-2.684-2.684V3596.9a2.682,2.682,0,0,1,2.684-2.684H1916a.894.894,0,0,1,0,1.788h-4.475a.9.9,0,0,0-.895.9v8.053a.9.9,0,0,0,.895.895h8.053a.9.9,0,0,0,.9-.895v-4.473a.894.894,0,1,1,1.788,0v4.473a2.684,2.684,0,0,1-2.684,2.684Zm2.946-5.632a.9.9,0,0,1,0-1.266l7.419-7.418h-2.312a.9.9,0,1,1,0-1.79h4.475a.893.893,0,0,1,.486.143l.008.005,0,0a.906.906,0,0,1,.135.111.867.867,0,0,1,.134.173l0,0,0,.006a.9.9,0,0,1,.122.454v4.475a.9.9,0,0,1-1.79,0v-2.317l-7.421,7.42a.889.889,0,0,1-1.265,0Z" transform="translate(-1908.841 -3591.527)" fill="#000"/>
    </svg>
    <svg id="btndownload_gray" width="16" height="17" viewBox="0 0 16 17" x="180" y="0" xmlns="http://www.w3.org/2000/svg">
        <path id="합치기_22" data-name="합치기 22" d="M2033.525,3606.37a2.683,2.683,0,0,1-2.683-2.686V3601.9a.9.9,0,1,1,1.791,0v1.787a.893.893,0,0,0,.891.893h10.74a.9.9,0,0,0,.893-.893V3601.9a.895.895,0,1,1,1.789,0l0,1.787a2.682,2.682,0,0,1-2.681,2.686Zm4.948-4.58h0l-.015-.008-.005,0-.009,0-.012-.007,0,0a.842.842,0,0,1-.163-.128l0,0h0l-4.475-4.474h0a.894.894,0,1,1,1.265-1.263l2.946,2.943v-8.574a.894.894,0,1,1,1.788,0v8.575l2.945-2.945a.894.894,0,0,1,1.266,1.263l-4.466,4.467a.888.888,0,0,1-1.062.165Z" transform="translate(-2030.842 -3589.369)" fill="#4d4d4d"/>
    </svg>
    <svg id="btndownload_white" width="16" height="17" viewBox="0 0 16 17" x="180" y="30" xmlns="http://www.w3.org/2000/svg">
        <path id="합치기_22" data-name="합치기 22" d="M2033.525,3606.37a2.683,2.683,0,0,1-2.683-2.686V3601.9a.9.9,0,1,1,1.791,0v1.787a.893.893,0,0,0,.891.893h10.74a.9.9,0,0,0,.893-.893V3601.9a.895.895,0,1,1,1.789,0l0,1.787a2.682,2.682,0,0,1-2.681,2.686Zm4.948-4.58h0l-.015-.008-.005,0-.009,0-.012-.007,0,0a.842.842,0,0,1-.163-.128l0,0h0l-4.475-4.474h0a.894.894,0,1,1,1.265-1.263l2.946,2.943v-8.574a.894.894,0,1,1,1.788,0v8.575l2.945-2.945a.894.894,0,0,1,1.266,1.263l-4.466,4.467a.888.888,0,0,1-1.062.165Z" transform="translate(-2030.842 -3589.369)" fill="#FFF"/>
    </svg>
    <svg id="btndownload_black" width="16" height="17" viewBox="0 0 16 17" x="180" y="60" xmlns="http://www.w3.org/2000/svg">
        <path id="합치기_22" data-name="합치기 22" d="M2033.525,3606.37a2.683,2.683,0,0,1-2.683-2.686V3601.9a.9.9,0,1,1,1.791,0v1.787a.893.893,0,0,0,.891.893h10.74a.9.9,0,0,0,.893-.893V3601.9a.895.895,0,1,1,1.789,0l0,1.787a2.682,2.682,0,0,1-2.681,2.686Zm4.948-4.58h0l-.015-.008-.005,0-.009,0-.012-.007,0,0a.842.842,0,0,1-.163-.128l0,0h0l-4.475-4.474h0a.894.894,0,1,1,1.265-1.263l2.946,2.943v-8.574a.894.894,0,1,1,1.788,0v8.575l2.945-2.945a.894.894,0,0,1,1.266,1.263l-4.466,4.467a.888.888,0,0,1-1.062.165Z" transform="translate(-2030.842 -3589.369)" fill="#000"/>
    </svg>
    <svg id="btnpreview_gray" width="16" height="16" viewBox="0 0 16 16" x="210" y="0" xmlns="http://www.w3.org/2000/svg">
        <path id="합치기_23" data-name="합치기 23" d="M2172.31,3604.659a7.2,7.2,0,0,1-11.471-5.8h.249l-.249,0a7.2,7.2,0,0,1,6.951-7.2v0h.5v0a7.2,7.2,0,0,1,5.549,11.472l2.8,2.794-1.531,1.529Zm-9.314-5.8a5.043,5.043,0,1,0,5.044-5.039A5.047,5.047,0,0,0,2163,3598.857Z" transform="translate(-2160.838 -3591.658)" fill="#4d4d4d"/>
    </svg>
    <svg id="btnpreview_white" width="16" height="16" viewBox="0 0 16 16" x="210" y="30" xmlns="http://www.w3.org/2000/svg">
        <path id="합치기_23" data-name="합치기 23" d="M2172.31,3604.659a7.2,7.2,0,0,1-11.471-5.8h.249l-.249,0a7.2,7.2,0,0,1,6.951-7.2v0h.5v0a7.2,7.2,0,0,1,5.549,11.472l2.8,2.794-1.531,1.529Zm-9.314-5.8a5.043,5.043,0,1,0,5.044-5.039A5.047,5.047,0,0,0,2163,3598.857Z" transform="translate(-2160.838 -3591.658)" fill="#FFF"/>
    </svg>
    <svg id="btnpreview_black" width="16" height="16" viewBox="0 0 16 16" x="210" y="60" xmlns="http://www.w3.org/2000/svg">
        <path id="합치기_23" data-name="합치기 23" d="M2172.31,3604.659a7.2,7.2,0,0,1-11.471-5.8h.249l-.249,0a7.2,7.2,0,0,1,6.951-7.2v0h.5v0a7.2,7.2,0,0,1,5.549,11.472l2.8,2.794-1.531,1.529Zm-9.314-5.8a5.043,5.043,0,1,0,5.044-5.039A5.047,5.047,0,0,0,2163,3598.857Z" transform="translate(-2160.838 -3591.658)" fill="#000"/>
    </svg>
    <svg id="btnpreviewsmall_gray" width="13" height="13" viewBox="0 0 13 13" x="240" y="0" xmlns="http://www.w3.org/2000/svg">
        <path id="합치기_35" data-name="합치기 35" d="M2105.446,3753.908a6.037,6.037,0,0,1-9.55-4.908h.3l-.3,0a6.036,6.036,0,0,1,5.738-6.028v-.008h.6v.008a6.037,6.037,0,0,1,4.609,9.545l2.316,2.315-1.393,1.391Zm-7.585-4.91a4.069,4.069,0,1,0,4.071-4.067A4.077,4.077,0,0,0,2097.862,3749Z" transform="translate(-2095.896 -3742.963)" fill="#4d4d4d"/>
    </svg>
    <svg id="btnpreviewsmall_white" width="13" height="13" viewBox="0 0 13 13" x="240" y="30" xmlns="http://www.w3.org/2000/svg">
        <path id="합치기_35" data-name="합치기 35" d="M2105.446,3753.908a6.037,6.037,0,0,1-9.55-4.908h.3l-.3,0a6.036,6.036,0,0,1,5.738-6.028v-.008h.6v.008a6.037,6.037,0,0,1,4.609,9.545l2.316,2.315-1.393,1.391Zm-7.585-4.91a4.069,4.069,0,1,0,4.071-4.067A4.077,4.077,0,0,0,2097.862,3749Z" transform="translate(-2095.896 -3742.963)" fill="#FFF"/>
    </svg>
    <svg id="btnpreviewsmall_black" width="13" height="13" viewBox="0 0 13 13" x="240" y="60" xmlns="http://www.w3.org/2000/svg">
        <path id="합치기_35" data-name="합치기 35" d="M2105.446,3753.908a6.037,6.037,0,0,1-9.55-4.908h.3l-.3,0a6.036,6.036,0,0,1,5.738-6.028v-.008h.6v.008a6.037,6.037,0,0,1,4.609,9.545l2.316,2.315-1.393,1.391Zm-7.585-4.91a4.069,4.069,0,1,0,4.071-4.067A4.077,4.077,0,0,0,2097.862,3749Z" transform="translate(-2095.896 -3742.963)" fill="#000"/>
    </svg>
</svg>