<svg xmlns="http://www.w3.org/2000/svg" width="77.433" height="57.021" viewBox="0 0 77.433 57.021">
  <g id="그룹_14" data-name="그룹 14" transform="translate(-1921.619 -78.979)">
    <rect id="사각형_16" data-name="사각형 16" width="73.333" height="10.667" transform="translate(1923.334 123.666)" fill="#fff"/>
    <rect id="사각형_17" data-name="사각형 17" width="62.667" height="43.667" transform="translate(1929.667 79.334)" fill="#fff"/>
    <path id="패스_1" data-name="패스 1" d="M1992.241,124.5a1.246,1.246,0,0,1-1.245-1.245V83.381a1.912,1.912,0,0,0-1.911-1.912h-56.757a1.915,1.915,0,0,0-1.912,1.912v39.873a1.245,1.245,0,1,1-2.49,0V83.381a4.406,4.406,0,0,1,4.4-4.4h56.757a4.405,4.405,0,0,1,4.4,4.4v39.873A1.244,1.244,0,0,1,1992.241,124.5Z" fill="#4d4d4d"/>
    <path id="패스_2" data-name="패스 2" d="M1994.841,136h-69.013c-2.32,0-4.209-1.579-4.209-3.52v-6.948c0-1.938,1.889-3.517,4.209-3.517h69.013c2.322,0,4.211,1.579,4.211,3.517v6.948C1999.052,134.421,1997.163,136,1994.841,136Zm-69.013-11.5c-.984,0-1.719.541-1.719,1.027v6.948c0,.486.735,1.031,1.719,1.031h69.013c.985,0,1.722-.545,1.722-1.031v-6.948c0-.486-.737-1.027-1.722-1.027Z" fill="#4d4d4d"/>
    <path id="패스_3" data-name="패스 3" d="M1966.362,129.419h-11.409a1.245,1.245,0,0,1-1.244-1.244v-4.921a1.245,1.245,0,0,1,1.244-1.245h11.409a1.244,1.244,0,0,1,1.245,1.245v4.921A1.245,1.245,0,0,1,1966.362,129.419ZM1956.2,126.93h8.92V124.5h-8.92Z" fill="#4d4d4d"/>
    <path id="패스_4" data-name="패스 4" d="M1935.08,86.14v29.827H1986.1V86.14Zm48.341,8.9h-3.32V92.3h-11.542v-3.32h14.862Z" fill="#fcce0d"/>
  </g>
</svg>
